<svg width="24" height="24" viewBox="0 0 24 24" fill="none" xmlns="http://www.w3.org/2000/svg">
<path d="M6.99902 16.999V12.999" stroke="white" stroke-width="1.5" stroke-linecap="round"/>
<path d="M12 16.999V6.99902" stroke="white" stroke-width="1.5" stroke-linecap="round"/>
<path d="M17.001 17.001V11.001" stroke="white" stroke-width="1.5" stroke-linecap="round"/>
<path d="M2.49902 11.999C2.49902 7.52068 2.49902 5.28151 3.89026 3.89026C5.28151 2.49902 7.52068 2.49902 11.999 2.49902C16.4773 2.49902 18.7165 2.49902 20.1078 3.89026C21.499 5.28151 21.499 7.52068 21.499 11.999C21.499 16.4773 21.499 18.7165 20.1078 20.1078C18.7165 21.499 16.4773 21.499 11.999 21.499C7.52068 21.499 5.28151 21.499 3.89026 20.1078C2.49902 18.7165 2.49902 16.4773 2.49902 11.999Z" stroke="white" stroke-width="1.5" stroke-linejoin="round"/>
</svg>
