<svg width="24" height="24" viewBox="0 0 24 24" fill="none" xmlns="http://www.w3.org/2000/svg">
<path d="M18 2.00098V4.00098M6 2.00098V4.00098" stroke="white" stroke-width="1.5" stroke-linecap="round" stroke-linejoin="round"/>
<path d="M11.9965 12.999H12.0055M11.9965 16.999H12.0055M15.992 12.999H16.001M8.00098 12.999H8.00995M8.00098 16.999H8.00995" stroke="white" stroke-width="2" stroke-linecap="round" stroke-linejoin="round"/>
<path d="M3.50098 8.00098H20.501" stroke="white" stroke-width="1.5" stroke-linecap="round" stroke-linejoin="round"/>
<path d="M2.49902 12.2432C2.49902 7.88594 2.49902 5.70728 3.75114 4.35364C5.00326 3 7.01851 3 11.049 3H12.949C16.9795 3 18.9948 3 20.2469 4.35364C21.499 5.70728 21.499 7.88594 21.499 12.2432V12.7568C21.499 17.1141 21.499 19.2927 20.2469 20.6464C18.9948 22 16.9795 22 12.949 22H11.049C7.01851 22 5.00326 22 3.75114 20.6464C2.49902 19.2927 2.49902 17.1141 2.49902 12.7568V12.2432Z" stroke="white" stroke-width="1.5" stroke-linecap="round" stroke-linejoin="round"/>
<path d="M3 8.00098H21" stroke="white" stroke-width="1.5" stroke-linecap="round" stroke-linejoin="round"/>
</svg>
