<svg width="24" height="24" viewBox="0 0 24 24" fill="none" xmlns="http://www.w3.org/2000/svg">
<g clip-path="url(#clip0_3685_5111)">
<path d="M12.0005 22.291C11.9047 22.2909 11.8102 22.2681 11.7248 22.2245C11.6603 22.1921 10.1237 21.4051 8.11627 19.9451C6.26376 18.5953 3.64777 16.3945 1.71863 13.5632C1.43596 13.1497 1.1813 12.7178 0.956374 12.2703C0.910063 12.1775 0.888212 12.0745 0.892895 11.971C0.897579 11.8675 0.928641 11.7669 0.983134 11.6787C1.03761 11.5905 1.11373 11.5176 1.20428 11.4671C1.29483 11.4166 1.3968 11.39 1.50049 11.39H5.41231L6.40364 9.97093C6.4634 9.88524 6.54423 9.8164 6.63833 9.77102C6.73243 9.72565 6.83664 9.70529 6.9409 9.71189C7.04515 9.71849 7.14596 9.75183 7.23358 9.80871C7.32121 9.86558 7.39271 9.94407 7.44119 10.0366L8.63079 12.3072L10.6321 8.02151C10.6858 7.90602 10.7743 7.81029 10.8853 7.74782C10.9963 7.68534 11.124 7.65928 11.2506 7.6733C11.3772 7.68732 11.4962 7.74071 11.5908 7.82595C11.6854 7.9112 11.7508 8.02398 11.7779 8.14842L13.0267 13.8329L14.788 10.0622C14.8359 9.95942 14.9116 9.87212 15.0065 9.81012C15.1014 9.74812 15.2118 9.71388 15.3251 9.71127C15.4385 9.70865 15.5503 9.73777 15.648 9.79533C15.7456 9.85289 15.8253 9.9366 15.8779 10.037L17.1733 12.5103L17.773 11.6507C17.829 11.5705 17.9036 11.5049 17.9905 11.4597C18.0773 11.4144 18.1738 11.3908 18.2717 11.3908H22.117C23.2762 8.80768 22.9157 6.23549 21.1248 4.45311C19.0785 2.41571 15.7489 2.41571 13.7022 4.45311C13.3551 4.79856 12.9181 5.20766 12.4554 5.64109L12.4169 5.67677C12.3042 5.78224 12.1557 5.84091 12.0013 5.84091C11.847 5.84091 11.6984 5.78224 11.5857 5.67677L11.5452 5.63906C11.0826 5.20401 10.6463 4.79856 10.2996 4.4519C8.25332 2.4149 4.92333 2.4149 2.87701 4.4519C1.52279 5.79962 0.971376 7.62335 1.31925 9.58615C1.34757 9.74492 1.31166 9.90844 1.21943 10.0407C1.12721 10.173 0.986203 10.2633 0.82744 10.2916C0.748796 10.3057 0.668161 10.304 0.590141 10.2869C0.512121 10.2697 0.438244 10.2374 0.372731 10.1917C0.307217 10.146 0.25135 10.0878 0.208321 10.0205C0.165291 9.95319 0.135943 9.87807 0.121951 9.79942C-0.0868577 8.62807 -0.027256 7.49239 0.298728 6.42402C0.627653 5.35108 1.21877 4.37703 2.01866 3.5899C4.53855 1.08177 8.63809 1.08177 11.158 3.5899C11.3976 3.82871 11.6875 4.10402 12.0005 4.39838C12.3135 4.10402 12.6034 3.83074 12.8435 3.5899C15.3629 1.08177 19.4629 1.08177 21.9824 3.5899C23.065 4.65586 23.7565 6.05577 23.9452 7.56335C24.1361 9.08217 23.8235 10.7093 23.0447 12.2694C22.993 12.3729 22.9128 12.4595 22.8136 12.519C22.7145 12.5786 22.6004 12.6086 22.4847 12.6056H18.5895L17.5978 14.0247C17.5383 14.1106 17.4576 14.1798 17.3636 14.2256C17.2695 14.2713 17.1653 14.292 17.0609 14.2857C16.9565 14.2794 16.8555 14.2462 16.7677 14.1895C16.6799 14.1328 16.6081 14.0543 16.5594 13.9618L15.3698 11.6913L13.3685 15.9749C13.3146 16.0899 13.2261 16.1852 13.1153 16.2473C13.0045 16.3094 12.877 16.3353 12.7508 16.3213C12.6245 16.3073 12.5058 16.2541 12.4113 16.1692C12.3169 16.0844 12.2513 15.972 12.2239 15.848L10.9751 10.1635L9.21384 13.9342C9.16586 14.0369 9.09018 14.1241 8.99531 14.186C8.90044 14.2479 8.79017 14.2821 8.67691 14.2847C8.56365 14.2873 8.45191 14.2583 8.35429 14.2008C8.25667 14.1433 8.17704 14.0597 8.12438 13.9594L6.82896 11.4861L6.22848 12.3453C6.17245 12.4255 6.0979 12.491 6.01115 12.5362C5.9244 12.5815 5.82802 12.6051 5.73018 12.6052H2.54453C2.60251 12.6964 2.66252 12.7868 2.72375 12.8768C4.5495 15.556 7.04345 17.6567 8.81406 18.9489C9.83326 19.6951 10.8973 20.3781 12.0001 20.994C13.1115 20.3805 17.346 17.8939 20.4096 14.0534C20.4587 13.9891 20.5202 13.9352 20.5904 13.8949C20.6606 13.8546 20.7382 13.8287 20.8186 13.8188C20.8989 13.8089 20.9804 13.8151 21.0583 13.8371C21.1362 13.8591 21.209 13.8964 21.2723 13.9469C21.3356 13.9974 21.3881 14.06 21.4269 14.1311C21.4657 14.2021 21.4899 14.2802 21.4981 14.3607C21.5063 14.4413 21.4984 14.5227 21.4747 14.6001C21.4511 14.6775 21.4122 14.7494 21.3604 14.8116C19.4215 17.2444 17.0585 19.1269 15.4177 20.2796C13.6398 21.5284 12.3314 22.1986 12.2762 22.2258C12.1907 22.2689 12.0963 22.2913 12.0005 22.291Z" fill="#1376FF"/>
</g>
<defs>
<clipPath id="clip0_3685_5111">
<rect width="24" height="24" fill="white"/>
</clipPath>
</defs>
</svg>
