<svg width="18" height="24" viewBox="0 0 18 24" fill="none" xmlns="http://www.w3.org/2000/svg">
<path d="M17.184 19.872V4.80001C17.184 2.97601 15.744 1.53601 13.92 1.53601H13.728C13.728 3.55201 12.096 5.08801 10.176 5.08801H7.008C4.992 5.08801 3.456 3.45601 3.456 1.53601H3.264C1.44 1.53601 0 2.97601 0 4.80001V19.968C0 21.792 1.44 23.232 3.264 23.232H14.016C15.744 23.136 17.184 21.696 17.184 19.872ZM8.448 19.68C5.376 19.68 2.976 17.184 2.976 14.208C2.976 11.136 5.472 8.73601 8.448 8.73601C11.52 8.73601 13.92 11.232 13.92 14.208C13.92 17.28 11.424 19.68 8.448 19.68Z" fill="black"/>
<path d="M10.2717 3.264C11.2317 3.264 11.9037 2.496 11.9037 1.632C11.9037 0.768 11.1357 0 10.2717 0H7.10368C6.14368 0 5.47168 0.768 5.47168 1.632C5.47168 2.496 6.23968 3.264 7.10368 3.264H10.2717Z" fill="black"/>
<path d="M10.4645 12.4804L7.48846 14.3044L6.81646 13.2484C6.52846 12.7684 5.95246 12.6724 5.47246 12.9604C4.99246 13.2484 4.89646 13.8244 5.18446 14.3044L6.14446 15.8404C6.52846 16.4164 7.39246 16.7044 7.96846 16.2244L11.3285 14.1124C11.8085 13.8244 11.9045 13.2484 11.6165 12.7684C11.5205 12.2884 10.9445 12.1924 10.4645 12.4804Z" fill="black"/>
</svg>
