<svg width="18" height="22" viewBox="0 0 18 22" fill="none" xmlns="http://www.w3.org/2000/svg">
<path d="M0.75 16.7308V8.45753C0.75 4.82416 0.75 3.00748 1.92157 1.87874C3.09315 0.75 4.97876 0.75 8.75 0.75C12.5212 0.75 14.4069 0.75 15.5784 1.87874C16.75 3.00748 16.75 4.82416 16.75 8.45753V16.7308C16.75 19.0367 16.75 20.1896 15.9772 20.6023C14.4805 21.4014 11.6732 18.7352 10.34 17.9324C9.5668 17.4668 9.18019 17.234 8.75 17.234C8.31981 17.234 7.93321 17.4668 7.16 17.9324C5.8268 18.7352 3.01947 21.4014 1.52285 20.6023C0.75 20.1896 0.75 19.0367 0.75 16.7308Z" stroke="white" stroke-width="1.5" stroke-linecap="round" stroke-linejoin="round"/>
<path d="M0.75 5.75H16.75" stroke="white" stroke-width="1.5"/>
</svg>
